HIERARCHY
ROOT Hips
{
	OFFSET 0.00000 0.00000 0.00000
	CHANNELS 6 Xposition Yposition Zposition Yrotation Zrotation Xrotation 
	JOINT Lumbar
	{
		OFFSET 0 0 0
		CHANNELS 3 Zrotation Xrotation Yrotation
		JOINT Neck
		{
			OFFSET 0.00 0.2701 0.00
			CHANNELS 3 Zrotation Xrotation Yrotation
			End Site
			{
				OFFSET 0.00 0.1379 0.00
			}
		}
		JOINT RightShoulder
		{
			OFFSET 0.0119 0.2289 0.1181
			CHANNELS 3 Zrotation Xrotation Yrotation
			JOINT RightElbow
			{
				OFFSET 0.00 -0.1475 0.00
				CHANNELS 2 Zrotation Yrotation
				JOINT RightWrist
				{
					OFFSET 0.00 -0.1605 0.00
					CHANNELS 2 Zrotation Xrotation
					End Site
					{
						OFFSET 0.0040 -0.1068 0.0006
					}
				}
			}
		}
		JOINT LeftShoulder
		{
			OFFSET 0.0119 0.2289 -0.1181
			CHANNELS 3 Zrotation Xrotation Yrotation
			JOINT LeftElbow
			{
				OFFSET 0.00 -0.1475 0.00
				CHANNELS 2 Zrotation Yrotation
				JOINT LeftWrist
				{
					OFFSET 0.00 -0.1605 0.00
					CHANNELS 2 Zrotation Xrotation
					End Site
					{
						OFFSET 0.0040 -0.1068 -0.0006
					}
				}
			}
		}
	}
	JOINT RightHip
	{
		OFFSET 0.0316 -0.0424 0.0458
		CHANNELS 3 Zrotation Xrotation Yrotation
		JOINT RightKnee
		{
			OFFSET 0.00 -0.2438 0.00
			CHANNELS 1 Zrotation
			JOINT RightAnkle
			{
				OFFSET 0.00 -0.2449 0.00
				CHANNELS 3 Zrotation Xrotation Yrotation
				End Site
				{
					OFFSET 0.1237 -0.0542 0.0051
				}
			}
		}
	}
	JOINT LeftHip
	{
		OFFSET 0.0316 -0.0424 -0.0458
		CHANNELS 3 Zrotation Xrotation Yrotation
		JOINT LeftKnee
		{
			OFFSET 0.00 -0.2438 0.00
			CHANNELS 1 Zrotation
			JOINT LeftAnkle
			{
				OFFSET 0.00 -0.2449 0.00
				CHANNELS 3 Zrotation Xrotation Yrotation
				End Site
				{
					OFFSET 0.1237 -0.0542 -0.0051
				}
			}
		}
	}
}
MOTION
Frames: 14
Frame Time: 0.02
0 0.57926 -0 184.27123 0 -4.05831 1.74021 3.35151 -2.03103 -22.83426 4.57642 -0.63771 -17.73748 -70.23602 -72.93179 19.95938 78.71512 -16.7853 -3.0001 -8.06286 67.88692 61.89401 21.77285 -71.6653 -29.8162 2.44433 -3.29868 4.29322 5.36436 -6.26448 -2.30122 -3.80626 -7.66202 -1.16408 5.68081 -4.68393 -8.01093 5.47503 2.82225 1.51858
-5e-05 0.57927 1e-05 184.27485 0 -4.05672 1.72107 3.35563 -2.02535 -22.83688 4.5758 -0.62975 -17.78512 -70.23081 -72.95373 19.96067 78.6656 -16.76673 -3.0375 -8.1141 67.89775 61.93177 21.7772 -71.65832 -29.83001 2.44318 -3.31686 4.28989 5.34606 -6.23939 -2.31307 -3.8065 -7.65017 -1.17669 5.6782 -4.68949 -7.99452 5.46897 2.84149 1.52486
-0.00011 0.57927 3e-05 184.27847 0 -4.05514 1.70209 3.35972 -2.0197 -22.83978 4.57523 -0.62183 -17.83197 -70.22573 -72.97548 19.962 78.61653 -16.74828 -3.07445 -8.16467 67.90842 61.96927 21.7816 -71.65127 -29.84365 2.442 -3.33496 4.28659 5.32781 -6.21446 -2.32482 -3.80674 -7.63833 -1.18927 5.67562 -4.69489 -7.97818 5.46299 2.86057 1.53101
-0.00016 0.57927 4e-05 184.28209 0 -4.05359 1.6835 3.36378 -2.01414 -22.84377 4.57483 -0.61401 -17.87595 -70.2211 -72.99655 19.96356 78.56889 -16.73001 -3.10982 -8.21336 67.91859 62.00634 21.78639 -71.64426 -29.85727 2.44079 -3.35295 4.28334 5.30959 -6.18984 -2.33633 -3.80696 -7.62651 -1.20183 5.67313 -4.69965 -7.96195 5.45723 2.87915 1.53652
-0.00021 0.57928 5e-05 184.28572 0 -4.05188 1.66277 3.36805 -2.00816 -22.84194 4.57351 -0.60568 -17.93494 -70.21407 -73.02107 19.96398 78.5138 -16.71066 -3.1534 -8.2724 67.93143 62.04597 21.78929 -71.63754 -29.87162 2.43984 -3.37156 4.27981 5.29121 -6.16346 -2.34917 -3.80724 -7.61472 -1.21444 5.67015 -4.70771 -7.94508 5.45027 2.90032 1.54523
-0.00027 0.57928 6e-05 184.2893 0 -4.05051 1.64661 3.37186 -2.00305 -22.85246 4.57414 -0.59842 -17.96225 -70.21213 -73.03837 19.96676 78.47442 -16.69369 -3.17966 -8.30921 67.93859 62.07995 21.7961 -71.62984 -29.884 2.43828 -3.38884 4.27686 5.27317 -6.14089 -2.35915 -3.8074 -7.6028 -1.22694 5.6682 -4.70888 -7.92965 5.44585 2.91602 1.54726
-0.00034 0.57928 7e-05 184.29292 0 -4.05006 1.64308 3.37439 -2.00046 -22.89815 4.58027 -0.59427 -17.89848 -70.22473 -73.03463 19.97687 78.4799 -16.68254 -3.15656 -8.28566 67.92973 62.10042 21.81511 -71.62225 -29.89455 2.43553 -3.4029 4.27554 5.25574 -6.12819 -2.36136 -3.80718 -7.59078 -1.23959 5.66924 -4.68947 -7.91741 5.44847 2.91631 1.52937
-0.00043 0.57928 7e-05 184.29648 0 -4.04995 1.64416 3.37643 -1.99874 -22.95615 4.58834 -0.59119 -17.80331 -70.2424 -73.02381 19.98922 78.50097 -16.67394 -3.11625 -8.2395 67.91516 62.11488 21.83786 -71.61317 -29.90253 2.43207 -3.41556 4.2748 5.23866 -6.11943 -2.36065 -3.80683 -7.57856 -1.25206 5.67128 -4.66335 -7.90675 5.45363 2.91114 1.50497
-0.00051 0.57928 7e-05 184.29996 0 -4.04968 1.64314 3.37869 -1.99652 -23.00792 4.59543 -0.58751 -17.72477 -70.25745 -73.01697 20.00001 78.5139 -16.66467 -3.08478 -8.20289 67.90341 62.13065 21.85799 -71.60291 -29.9093 2.42855 -3.42859 4.27378 5.22163 -6.10927 -2.36121 -3.80656 -7.56625 -1.26432 5.67276 -4.64129 -7.8959 5.45759 2.90868 1.48451
-0.00059 0.57928 8e-05 184.30384 0 -4.04943 1.64217 3.38101 -1.99469 -23.06244 4.60294 -0.58425 -17.63634 -70.27385 -73.00691 20.01308 78.5312 -16.65333 -3.04896 -8.16909 67.89078 62.15212 21.88191 -71.60044 -29.92589 2.42655 -3.44274 4.27282 5.20382 -6.09747 -2.36205 -3.80623 -7.55471 -1.27777 5.67467 -4.615 -7.88288 5.46175 2.90529 1.46001
-0.00067 0.57928 8e-05 184.30691 0 -4.04922 1.64218 3.38306 -1.99232 -23.11407 4.61005 -0.58042 -17.56099 -70.28862 -73.00185 20.02192 78.54321 -16.64689 -3.01817 -8.1244 67.87853 62.16064 21.89893 -71.58145 -29.92169 2.42134 -3.45425 4.27188 5.18761 -6.09001 -2.36156 -3.80598 -7.54152 -1.28872 5.67594 -4.59589 -7.87468 5.46608 2.90251 1.44226
-0.00074 0.57928 8e-05 184.30739 0 -4.04912 1.64391 3.38469 -1.9877 -23.1556 4.61538 -0.57425 -17.52978 -70.29779 -73.01255 20.01872 78.53594 -16.65357 -3.00487 -8.05238 67.86967 62.13186 21.89517 -71.5167 -29.85841 2.40659 -3.45871 4.27095 5.17666 -6.09367 -2.35854 -3.806 -7.52373 -1.29255 5.67525 -4.59863 -7.88002 5.47051 2.90283 1.4456
-0.0008 0.57927 9e-05 184.30709 0 -4.04903 1.64644 3.38603 -1.98262 -23.19364 4.62027 -0.56756 -17.51273 -70.30513 -73.02846 20.01117 78.52297 -16.66506 -2.99732 -7.97076 67.86124 62.09077 21.88446 -71.43559 -29.7748 2.38882 -3.4606 4.27 5.16718 -6.10155 -2.35421 -3.8061 -7.50433 -1.2939 5.67389 -4.60874 -7.89005 5.47503 2.90393 1.4558
-0.00086 0.57927 0.0001 184.30739 0 -4.04888 1.64852 3.38736 -1.97814 -23.23273 4.62547 -0.56142 -17.48897 -70.31323 -73.04188 20.00548 78.51316 -16.67418 -2.98751 -7.89534 67.85202 62.05733 21.87749 -71.36214 -29.7019 2.37299 -3.46374 4.26899 5.15633 -6.10746 -2.35014 -3.80614 -7.48565 -1.29654 5.6728 -4.61524 -7.89755 5.47932 2.90459 1.46228
